<?xml version="1.0" encoding="UTF-8"?>
<svg id="Layer_1" xmlns="http://www.w3.org/2000/svg" viewBox="0 0 500 600">
  <defs>
    <style>
      .cls-1 {
        font-family: Poppins-Italic, Poppins;
        font-style: italic;
      }

      .cls-2 {
        font-family: Poppins-Regular, Poppins;
      }

      .cls-3 {
        fill: #fffff1;
        stroke: #19196b;
        stroke-miterlimit: 10;
        stroke-width: 5px;
      }

      .cls-4 {
        font-size: 25px;
      }

      .cls-4, .cls-5 {
        fill: #181a6b;
      }
    </style>
  </defs>
  <rect class="cls-3" y="100" width="500" height="400" rx="12" ry="12" transform="translate(-50 550) rotate(-90)"/>
  <g>
    <path class="cls-5" d="M110.35,157.85c-2.93-1.2-5.27-2.98-7.02-5.33-1.75-2.35-2.68-5.18-2.77-8.5h13.1c.19,1.87.84,3.3,1.94,4.28,1.1.98,2.54,1.48,4.32,1.48s3.26-.42,4.32-1.26c1.06-.84,1.58-2,1.58-3.49,0-1.25-.42-2.28-1.26-3.1-.84-.82-1.87-1.49-3.1-2.02-1.22-.53-2.96-1.13-5.22-1.8-3.27-1.01-5.93-2.02-7.99-3.02-2.06-1.01-3.84-2.5-5.33-4.46-1.49-1.97-2.23-4.54-2.23-7.7,0-4.7,1.7-8.39,5.11-11.05s7.85-4,13.32-4,10.06,1.33,13.46,4c3.41,2.66,5.23,6.37,5.47,11.12h-13.32c-.1-1.63-.7-2.92-1.8-3.85-1.11-.94-2.52-1.4-4.25-1.4-1.49,0-2.69.4-3.6,1.19-.91.79-1.37,1.93-1.37,3.42,0,1.63.77,2.9,2.3,3.82,1.54.91,3.94,1.9,7.2,2.95,3.26,1.1,5.92,2.16,7.96,3.17,2.04,1.01,3.8,2.47,5.29,4.39,1.49,1.92,2.23,4.39,2.23,7.42s-.73,5.5-2.2,7.85c-1.46,2.35-3.59,4.22-6.37,5.62-2.78,1.39-6.07,2.09-9.86,2.09s-7.01-.6-9.94-1.8Z"/>
    <path class="cls-5" d="M146.17,128.11c1.56-3.12,3.68-5.52,6.37-7.2,2.69-1.68,5.69-2.52,9-2.52,2.83,0,5.31.58,7.45,1.73,2.14,1.15,3.78,2.66,4.93,4.54v-5.69h12.31v40.18h-12.31v-5.69c-1.2,1.87-2.87,3.38-5,4.54-2.14,1.15-4.62,1.73-7.45,1.73-3.27,0-6.24-.85-8.93-2.56-2.69-1.7-4.81-4.13-6.37-7.27-1.56-3.14-2.34-6.78-2.34-10.91s.78-7.75,2.34-10.87ZM171.37,131.78c-1.71-1.78-3.78-2.66-6.23-2.66s-4.53.88-6.23,2.63c-1.7,1.75-2.56,4.16-2.56,7.24s.85,5.51,2.56,7.31c1.7,1.8,3.78,2.7,6.23,2.7s4.52-.89,6.23-2.66c1.7-1.78,2.55-4.2,2.55-7.27s-.85-5.5-2.55-7.27Z"/>
    <path class="cls-5" d="M230.91,123.11c2.81,3.05,4.21,7.24,4.21,12.56v23.47h-12.24v-21.82c0-2.69-.7-4.78-2.09-6.26-1.39-1.49-3.26-2.23-5.62-2.23s-4.22.74-5.62,2.23c-1.39,1.49-2.09,3.58-2.09,6.26v21.82h-12.31v-40.18h12.31v5.33c1.25-1.77,2.93-3.18,5.04-4.21,2.11-1.03,4.49-1.55,7.13-1.55,4.7,0,8.46,1.52,11.27,4.57Z"/>
    <path class="cls-5" d="M250.68,157.92c-2.74-1.2-4.9-2.84-6.48-4.93-1.58-2.09-2.47-4.43-2.66-7.02h12.17c.14,1.39.79,2.52,1.94,3.38s2.57,1.3,4.25,1.3c1.54,0,2.72-.3,3.56-.9.84-.6,1.26-1.38,1.26-2.34,0-1.15-.6-2-1.8-2.56-1.2-.55-3.14-1.16-5.83-1.84-2.88-.67-5.28-1.38-7.2-2.12-1.92-.74-3.58-1.92-4.97-3.53-1.39-1.61-2.09-3.78-2.09-6.52,0-2.3.63-4.4,1.91-6.3,1.27-1.9,3.14-3.4,5.62-4.5,2.47-1.1,5.41-1.66,8.82-1.66,5.04,0,9.01,1.25,11.92,3.74,2.9,2.5,4.57,5.81,5,9.94h-11.38c-.19-1.39-.8-2.5-1.84-3.31-1.03-.82-2.39-1.22-4.07-1.22-1.44,0-2.54.28-3.31.83-.77.55-1.15,1.31-1.15,2.27,0,1.15.61,2.02,1.84,2.59,1.22.58,3.13,1.15,5.72,1.73,2.97.77,5.4,1.52,7.27,2.27,1.87.74,3.52,1.94,4.93,3.6,1.42,1.66,2.15,3.88,2.2,6.66,0,2.35-.66,4.45-1.98,6.3-1.32,1.85-3.22,3.3-5.69,4.36-2.47,1.06-5.34,1.58-8.6,1.58-3.5,0-6.62-.6-9.36-1.8Z"/>
    <path class="cls-5" d="M110.35,229.85c-2.93-1.2-5.27-2.98-7.02-5.33-1.75-2.35-2.68-5.18-2.77-8.5h13.1c.19,1.87.84,3.3,1.94,4.28,1.1.98,2.54,1.48,4.32,1.48s3.26-.42,4.32-1.26c1.06-.84,1.58-2,1.58-3.49,0-1.25-.42-2.28-1.26-3.1-.84-.82-1.87-1.49-3.1-2.02-1.22-.53-2.96-1.13-5.22-1.8-3.27-1.01-5.93-2.02-7.99-3.02-2.06-1.01-3.84-2.5-5.33-4.46-1.49-1.97-2.23-4.54-2.23-7.7,0-4.7,1.7-8.39,5.11-11.05s7.85-4,13.32-4,10.06,1.33,13.46,4c3.41,2.66,5.23,6.37,5.47,11.12h-13.32c-.1-1.63-.7-2.92-1.8-3.85-1.11-.94-2.52-1.4-4.25-1.4-1.49,0-2.69.4-3.6,1.19-.91.79-1.37,1.93-1.37,3.42,0,1.63.77,2.9,2.3,3.82,1.54.91,3.94,1.9,7.2,2.95,3.26,1.1,5.92,2.16,7.96,3.17,2.04,1.01,3.8,2.47,5.29,4.39,1.49,1.92,2.23,4.39,2.23,7.42s-.73,5.5-2.2,7.85c-1.46,2.35-3.59,4.22-6.37,5.62-2.78,1.39-6.07,2.09-9.86,2.09s-7.01-.6-9.94-1.8Z"/>
    <path class="cls-5" d="M183.93,214.01h-27.86c.19,2.5,1,4.4,2.41,5.72,1.42,1.32,3.16,1.98,5.22,1.98,3.07,0,5.21-1.3,6.41-3.89h13.1c-.67,2.64-1.88,5.02-3.64,7.13-1.75,2.11-3.95,3.77-6.59,4.97-2.64,1.2-5.59,1.8-8.86,1.8-3.94,0-7.44-.84-10.51-2.52-3.07-1.68-5.47-4.08-7.2-7.2-1.73-3.12-2.59-6.77-2.59-10.94s.85-7.82,2.56-10.94c1.7-3.12,4.09-5.52,7.16-7.2,3.07-1.68,6.6-2.52,10.58-2.52s7.34.82,10.37,2.45c3.02,1.63,5.39,3.96,7.09,6.98,1.7,3.02,2.56,6.55,2.56,10.58,0,1.15-.07,2.35-.22,3.6ZM171.55,207.16c0-2.11-.72-3.79-2.16-5.04-1.44-1.25-3.24-1.87-5.4-1.87s-3.8.6-5.22,1.8c-1.42,1.2-2.29,2.9-2.63,5.11h15.41Z"/>
    <path class="cls-5" d="M208.34,192.44c2.16-1.27,4.56-1.91,7.2-1.91v13.03h-3.38c-3.07,0-5.38.66-6.91,1.98-1.54,1.32-2.3,3.64-2.3,6.95v18.65h-12.31v-40.18h12.31v6.7c1.44-2.21,3.24-3.95,5.4-5.22Z"/>
    <path class="cls-5" d="M222.34,184.88c-1.37-1.27-2.05-2.84-2.05-4.72s.68-3.52,2.05-4.79c1.37-1.27,3.13-1.91,5.29-1.91s3.85.64,5.22,1.91c1.37,1.27,2.05,2.87,2.05,4.79s-.68,3.45-2.05,4.72c-1.37,1.27-3.11,1.91-5.22,1.91s-3.92-.64-5.29-1.91ZM233.76,190.97v40.18h-12.31v-40.18h12.31Z"/>
    <path class="cls-5" d="M262.84,201.19h-6.62v29.95h-12.31v-29.95h-4.46v-10.22h4.46v-1.15c0-4.94,1.41-8.7,4.25-11.27,2.83-2.57,6.98-3.85,12.46-3.85.91,0,1.58.02,2.02.07v10.44c-2.35-.14-4.01.19-4.97,1.01-.96.82-1.44,2.28-1.44,4.39v.36h6.62v10.22Z"/>
  </g>
  <text class="cls-4" transform="translate(96.33 285.24)"><tspan class="cls-2"><tspan x="0" y="0">The typefaces and fonts </tspan></tspan><tspan class="cls-1" x="0" y="30">without</tspan><tspan class="cls-2" x="92.85" y="30" xml:space="preserve"> lines, becoming </tspan><tspan class="cls-2"><tspan x="0" y="60">more popular due to </tspan></tspan><tspan class="cls-2"><tspan x="0" y="90">technology.</tspan></tspan></text>
</svg>