<?xml version="1.0" encoding="UTF-8"?>
<svg id="Layer_1" xmlns="http://www.w3.org/2000/svg" viewBox="0 0 1080 1080">
  <defs>
    <style>
      .cls-1 {
        fill: #191970;
      }
    </style>
  </defs>
  <g id="_x3C_Radial_Repeat_x3E_">
    <path class="cls-1" d="M535.05,537.18c67.38,17.7,356.26,25.14,287.52,166.6-86.92,124.29-237.38-119.14-287.52-166.6Z"/>
  </g>
  <g id="_x3C_Radial_Repeat_x3E_-2" data-name="_x3C_Radial_Repeat_x3E_">
    <path class="cls-1" d="M535.09,542.88c49.02-49.5,199.9-295.96,288.04-165.7,64.18,137.42-221.87,146-288.04,165.7Z"/>
  </g>
  <g id="_x3C_Radial_Repeat_x3E_-3" data-name="_x3C_Radial_Repeat_x3E_">
    <path class="cls-1" d="M540.04,545.7c-18.36-67.2-156.36-321.1.52-332.3,151.1,13.13,15.51,265.15-.52,332.3Z"/>
  </g>
  <g id="_x3C_Radial_Repeat_x3E_-4" data-name="_x3C_Radial_Repeat_x3E_">
    <path class="cls-1" d="M544.95,542.82c-67.38-17.7-356.26-25.14-287.52-166.6,86.92-124.29,237.38,119.14,287.52,166.6Z"/>
  </g>
  <g id="_x3C_Radial_Repeat_x3E_-5" data-name="_x3C_Radial_Repeat_x3E_">
    <path class="cls-1" d="M544.91,537.12c-49.02,49.5-199.9,295.96-288.04,165.7-64.18-137.42,221.87-146,288.04-165.7Z"/>
  </g>
  <g id="_x3C_Radial_Repeat_x3E_-6" data-name="_x3C_Radial_Repeat_x3E_">
    <path class="cls-1" d="M539.96,534.3c18.36,67.2,156.36,321.1-.52,332.3-151.1-13.13-15.51-265.15.52-332.3Z"/>
  </g>
</svg>